<svg width="46" height="46" viewBox="0 0 46 46" fill="none" xmlns="http://www.w3.org/2000/svg">
<rect width="46" height="46" rx="10" fill="#DEEBFF"/>
<path d="M37 6.72092C36.5333 6.72092 36.1667 6.90425 35.8167 7.20425L19.9833 23.0376C19.9167 23.1043 19.8667 23.1709 15.7167 28.9709L10.3333 34.3709L9.85 33.8709C9.5 33.5543 9.1 33.3876 8.66667 33.3876C7.73333 33.3876 7 34.1209 7 35.0543C7 35.4876 7.16667 35.8876 7.48333 36.2376L10.8167 39.5709C11.4667 40.2376 12.5167 40.2543 13.1833 39.6209C13.85 38.9709 13.8667 37.9209 13.1833 37.2043L12.6833 36.7209L18.0667 31.3376L24.0167 27.0709L39.85 11.2376C40.5 10.5876 40.5 9.52092 39.85 8.87092L38.1833 7.20425C37.8333 6.88758 37.4333 6.72092 37 6.72092ZM34.5 25.0543C33.3949 25.0543 32.3351 25.4932 31.5537 26.2746C30.7723 27.056 30.3333 28.1159 30.3333 29.2209C30.3333 30.326 30.7723 31.3858 31.5537 32.1672C32.3351 32.9486 33.3949 33.3876 34.5 33.3876C35.6051 33.3876 36.6649 32.9486 37.4463 32.1672C38.2277 31.3858 38.6667 30.326 38.6667 29.2209C38.6667 28.1159 38.2277 27.056 37.4463 26.2746C36.6649 25.4932 35.6051 25.0543 34.5 25.0543Z" fill="#A39E97" fillOpacity="0.66"/>
<path d="M36.3333 6.33334C35.8666 6.33334 35.5 6.51668 35.15 6.81668L19.3166 22.65C19.25 22.7167 19.2 22.7833 15.05 28.5833L9.66665 33.9833L9.18331 33.4833C8.83331 33.1667 8.43331 33 7.99998 33C7.06665 33 6.33331 33.7333 6.33331 34.6667C6.33331 35.1 6.49998 35.5 6.81665 35.85L10.15 39.1833C10.8 39.85 11.85 39.8667 12.5166 39.2333C13.1833 38.5833 13.2 37.5333 12.5166 36.8167L12.0166 36.3333L17.4 30.95L23.35 26.6833L39.1833 10.85C39.8333 10.2 39.8333 9.13334 39.1833 8.48334L37.5166 6.81668C37.1666 6.50001 36.7666 6.33334 36.3333 6.33334ZM33.8333 24.6667C32.7282 24.6667 31.6684 25.1057 30.887 25.8871C30.1056 26.6685 29.6666 27.7283 29.6666 28.8333C29.6666 29.9384 30.1056 30.9982 30.887 31.7796C31.6684 32.561 32.7282 33 33.8333 33C34.9384 33 35.9982 32.561 36.7796 31.7796C37.561 30.9982 38 29.9384 38 28.8333C38 27.7283 37.561 26.6685 36.7796 25.8871C35.9982 25.1057 34.9384 24.6667 33.8333 24.6667Z" fill="#ECBC75"/>
<ellipse cx="34" cy="29.0465" rx="5" ry="4.65116" fill="white"/>
<path d="M15.5 10.3V34.3H34.5V29.5H21.8333V10.3H15.5Z" fill="#323079"/>
</svg>
