<svg width="47" height="46" viewBox="0 0 47 46" fill="none" xmlns="http://www.w3.org/2000/svg">
<g clipPath="url(#clip0_620_204)">
<path d="M23.9964 0.0143738C11.3212 0.0143738 1.01074 10.3248 1.01074 23C1.01074 35.6787 11.3212 45.9892 23.9964 45.9892C36.6715 45.9892 46.9856 35.6787 46.9856 23C46.9892 10.3248 36.6715 0.0143738 23.9964 0.0143738Z" fill="#E0E0E0"/>
<mask id="mask0_620_204" style="mask-type:luminance" maskUnits="userSpaceOnUse" x="1" y="0" width="46" height="46">
<path d="M23.9964 0.0143738C11.3212 0.0143738 1.01074 10.3248 1.01074 23C1.01074 35.6787 11.3212 45.9892 23.9964 45.9892C36.6715 45.9892 46.9856 35.6787 46.9856 23C46.9892 10.3248 36.6715 0.0143738 23.9964 0.0143738Z" fill="white"/>
</mask>
<g mask="url(#mask0_620_204)">
<mask id="mask1_620_204" style="mask-type:luminance" maskUnits="userSpaceOnUse" x="-1" y="-2" width="50" height="50">
<path d="M48.4446 23C48.4446 36.5017 37.498 47.4447 23.9963 47.4447C10.4982 47.4447 -0.448364 36.4981 -0.448364 23C-0.448364 9.49827 10.4946 -1.4447 23.9963 -1.4447C37.5016 -1.4447 48.4446 9.49827 48.4446 23Z" fill="white"/>
</mask>
<g mask="url(#mask1_620_204)">
<path d="M43.5715 8.40575C43.4421 8.40575 43.3091 8.36622 43.2013 8.28716C42.2418 7.61872 41.2355 7.95294 41.1888 7.96731C40.851 8.08231 40.4737 7.90263 40.3551 7.56481C40.2365 7.22341 40.4126 6.84966 40.7504 6.73106C40.8079 6.7095 41.9615 6.307 43.2409 6.8281C43.8949 5.60981 45.0413 5.18216 45.0952 5.16059C45.4366 5.03841 45.814 5.2145 45.9326 5.55591C46.0548 5.89372 45.8859 6.26747 45.5445 6.39325C45.5049 6.41122 44.5131 6.79935 44.204 7.92419C44.1465 8.12903 43.9955 8.29435 43.7943 8.36981C43.7224 8.39497 43.6506 8.40575 43.5715 8.40575ZM44.7754 11.73C44.6424 11.73 44.5131 11.6904 44.4016 11.6114C43.4457 10.9429 42.4359 11.2772 42.3963 11.2915C42.0585 11.4065 41.6812 11.2304 41.5626 10.889C41.444 10.5476 41.6129 10.1775 41.9543 10.0553C42.0118 10.0373 43.1654 9.63122 44.4448 10.1523C45.0988 8.93403 46.2416 8.50638 46.2991 8.48481C46.6406 8.36263 47.0179 8.53872 47.1401 8.88013C47.2623 9.21794 47.0898 9.59169 46.752 9.71747C46.6981 9.73903 45.7205 10.1272 45.4151 11.2484C45.3576 11.4533 45.2066 11.6186 45.0054 11.694C44.9263 11.7192 44.8509 11.73 44.7754 11.73ZM44.8616 15.0722C44.7934 15.0722 44.7251 15.0614 44.6568 15.0434C44.4556 14.9751 44.2974 14.817 44.2363 14.6086C43.8913 13.4909 42.8635 13.1279 42.8527 13.1243C42.6879 13.07 42.5514 12.9524 42.4732 12.7974C42.395 12.6424 42.3816 12.4627 42.4359 12.2978C42.5473 11.9528 42.9174 11.7659 43.2624 11.8773C43.3199 11.8953 44.4771 12.287 45.1671 13.4837C46.4321 12.9267 47.5965 13.2897 47.654 13.3112C47.999 13.4226 48.1895 13.7928 48.0745 14.1378C47.9631 14.4828 47.5965 14.6733 47.2515 14.5583C47.2012 14.5439 46.1877 14.2456 45.2534 14.9464C45.1384 15.029 45.0018 15.0722 44.8616 15.0722ZM43.7655 18.4359C43.6256 18.4349 43.4896 18.3895 43.3772 18.3061C43.2648 18.2228 43.1818 18.1059 43.1402 17.9723C42.7952 16.8547 41.7962 16.4989 41.753 16.4845C41.4152 16.3659 41.2284 15.9993 41.3434 15.6579C41.4584 15.3165 41.8249 15.1297 42.1663 15.2411C42.2238 15.259 43.3846 15.6508 44.071 16.8475C45.336 16.2904 46.5004 16.657 46.5615 16.675C46.9029 16.7864 47.0934 17.1601 46.9784 17.5015C46.867 17.8465 46.5004 18.037 46.159 17.922C46.1051 17.9076 45.0916 17.6129 44.1609 18.3101C44.0459 18.3892 43.9057 18.4359 43.7655 18.4359ZM44.0638 22.504C43.8374 22.504 43.611 22.3854 43.496 22.1734C43.4673 22.1267 42.921 21.2247 41.7638 21.1025C41.5518 21.0809 41.3649 20.9587 41.2607 20.7718C41.1601 20.585 41.1493 20.3622 41.2427 20.1681C41.7459 19.1079 41.2391 18.1448 41.232 18.1376C41.0523 17.8214 41.1673 17.4189 41.4835 17.2464C41.8034 17.0667 42.2023 17.1817 42.3748 17.4979C42.4035 17.5518 42.9929 18.6264 42.6946 19.9668C43.9991 20.4125 44.6101 21.4726 44.6388 21.5265C44.8149 21.8428 44.7035 22.2417 44.3873 22.4178C44.2831 22.4789 44.168 22.504 44.0638 22.504ZM40.9768 24.2326C40.7504 24.2326 40.5276 24.114 40.409 23.902C40.3766 23.8553 39.834 22.9532 38.6768 22.8311C38.5726 22.8188 38.4727 22.7821 38.3853 22.724C38.2979 22.666 38.2254 22.5881 38.1737 22.4968C38.0695 22.3136 38.0623 22.0836 38.1557 21.8967C38.6588 20.8365 38.1521 19.8734 38.1485 19.8662C37.9688 19.5536 38.0802 19.1475 38.4001 18.975C38.7163 18.7953 39.1152 18.9103 39.2913 19.2229C39.3237 19.2768 39.9095 20.3478 39.6076 21.6954C40.9121 22.1411 41.523 23.2012 41.5518 23.2551C41.7279 23.5714 41.6165 23.9667 41.3002 24.1464C41.1996 24.2075 41.0882 24.2326 40.9768 24.2326ZM37.897 25.9648C37.6705 25.9648 37.4441 25.8462 37.322 25.6342C37.2968 25.5875 36.7541 24.6818 35.597 24.5632C35.3849 24.5417 35.1945 24.4159 35.0902 24.2326C34.986 24.0457 34.9788 23.8193 35.0723 23.6289C35.5754 22.5687 35.0651 21.6056 35.0615 21.5984C34.8818 21.2822 34.9968 20.8797 35.313 20.7072C35.6293 20.5311 36.0318 20.6425 36.2043 20.9587C36.233 21.0126 36.8224 22.0836 36.5205 23.4312C37.8287 23.8768 38.436 24.937 38.4684 24.9873C38.6445 25.3036 38.5295 25.7025 38.2168 25.8822C38.1126 25.9397 38.0012 25.9648 37.897 25.9648ZM34.9932 27.6108C34.7848 27.6108 34.5799 27.5101 34.4506 27.3268C34.4254 27.2873 33.8037 26.4284 32.6357 26.4068C32.4237 26.4033 32.226 26.299 32.1038 26.1193C31.9852 25.9432 31.9601 25.7204 32.032 25.5192C32.4452 24.4195 31.8559 23.5067 31.8487 23.4995C31.6438 23.1976 31.7229 22.7879 32.0248 22.5903C32.323 22.3854 32.7327 22.4645 32.9376 22.7628C32.9735 22.8131 33.6455 23.8301 33.4623 25.1993C34.8027 25.53 35.4999 26.5326 35.5359 26.5865C35.7407 26.8848 35.6652 27.2909 35.367 27.4958C35.2448 27.5748 35.1154 27.6108 34.9932 27.6108ZM32.0643 29.5981C31.8559 29.5981 31.651 29.5011 31.5216 29.3142C31.4929 29.2675 30.8712 28.4158 29.7104 28.3942C29.4948 28.3906 29.2971 28.2828 29.1785 28.1067C29.0563 27.9306 29.0312 27.7078 29.1066 27.5065C29.5163 26.4104 28.927 25.494 28.9198 25.4832C28.8715 25.412 28.8378 25.332 28.8205 25.2477C28.8033 25.1634 28.8028 25.0766 28.8192 24.9921C28.8355 24.9076 28.8684 24.8272 28.9159 24.7555C28.9634 24.6838 29.0245 24.6221 29.0959 24.574C29.3941 24.3728 29.8074 24.4483 30.0051 24.7501C30.041 24.7968 30.7202 25.8211 30.5334 27.1867C31.8738 27.5173 32.571 28.5236 32.607 28.5703C32.8082 28.8722 32.7327 29.2818 32.4309 29.4795C32.3247 29.5575 32.1961 29.5991 32.0643 29.5981ZM29.139 31.5854C28.9305 31.5854 28.7257 31.4884 28.5999 31.3015C28.5676 31.2548 27.9459 30.4067 26.7851 30.3851C26.573 30.3815 26.3754 30.2737 26.2532 30.1012C26.131 29.9215 26.1059 29.6987 26.1813 29.5011C26.5946 28.405 26.0016 27.4886 25.998 27.4778C25.7932 27.1759 25.8723 26.7734 26.1741 26.5686C26.3179 26.4717 26.494 26.4355 26.6642 26.4678C26.8345 26.5001 26.9851 26.5983 27.0834 26.7411C27.1193 26.7914 27.7949 27.812 27.608 29.1776C28.9485 29.5083 29.6457 30.5145 29.6816 30.5648C29.8865 30.8631 29.8074 31.2692 29.5055 31.474C29.3941 31.5459 29.2684 31.5854 29.139 31.5854ZM24.5246 32.9295C24.4312 32.9295 24.3305 32.9079 24.2407 32.8684C24.0502 32.775 23.9137 32.5953 23.8813 32.3868C23.6837 31.2332 22.7385 30.7517 22.6954 30.7301C22.372 30.5684 22.2354 30.1767 22.3971 29.8568C22.5552 29.5298 22.9434 29.3968 23.2668 29.5478C23.3243 29.5729 24.4204 30.112 24.9487 31.3878C26.2784 30.9961 27.3852 31.5136 27.4391 31.5387C27.7662 31.6933 27.9063 32.085 27.7482 32.412C27.5937 32.7354 27.2055 32.8756 26.8785 32.7247C26.8318 32.7031 25.8687 32.2754 24.848 32.8468C24.7438 32.9007 24.636 32.9295 24.5246 32.9295ZM23.0009 36.1208C22.9038 36.1208 22.8068 36.1028 22.7205 36.0597C22.5265 35.9662 22.3899 35.7901 22.3576 35.5817C22.1599 34.4281 21.2148 33.9429 21.1716 33.9214C21.0164 33.844 20.8982 33.7083 20.843 33.5439C20.7877 33.3795 20.7999 33.1999 20.877 33.0445C21.0315 32.7211 21.4196 32.5845 21.7466 32.7426C21.8005 32.7678 22.9002 33.3068 23.4285 34.5826C24.7474 34.1909 25.8615 34.7084 25.9154 34.7336C26.246 34.8881 26.3826 35.2798 26.228 35.6068C26.0735 35.9339 25.6818 36.074 25.3584 35.9195C25.308 35.9015 24.3449 35.4703 23.3279 36.0417C23.2267 36.0935 23.1146 36.1206 23.0009 36.1208ZM21.4771 39.312C21.3801 39.312 21.283 39.2904 21.1932 39.2473C21.0027 39.1575 20.8662 38.9778 20.8266 38.7658C20.6326 37.6158 19.6838 37.1306 19.6479 37.1126C19.5707 37.0747 19.5016 37.022 19.4448 36.9573C19.388 36.8927 19.3445 36.8175 19.3168 36.7361C19.2891 36.6546 19.2777 36.5685 19.2834 36.4826C19.289 36.3968 19.3115 36.3129 19.3496 36.2358C19.5077 35.9159 19.8959 35.7757 20.2193 35.9339C20.2732 35.9626 21.3729 36.4981 21.9012 37.7739C23.2273 37.3857 24.3377 37.8997 24.3916 37.9284C24.5484 38.0028 24.6693 38.1363 24.7276 38.2998C24.7859 38.4632 24.7768 38.6431 24.7025 38.7999C24.6282 38.9567 24.4946 39.0775 24.3311 39.1358C24.1677 39.1941 23.9878 39.1851 23.831 39.1108C23.7843 39.0892 22.8176 38.6651 21.8005 39.2329C21.7009 39.2856 21.5898 39.3127 21.4771 39.312ZM21.1249 42.647C20.9596 42.647 20.7979 42.5823 20.6721 42.4673C19.8168 41.6623 18.7495 41.8528 18.7351 41.8564C18.3793 41.9282 18.0343 41.6982 17.9624 41.3461C17.8905 40.9903 18.1205 40.6453 18.4763 40.5734C18.5374 40.5626 19.7377 40.329 20.9273 41.0298C21.7466 39.9229 22.947 39.6642 23.0045 39.6534C23.1741 39.6207 23.3497 39.6561 23.4934 39.7519C23.6371 39.8477 23.7373 39.9963 23.7723 40.1655C23.8072 40.3346 23.7742 40.5107 23.6802 40.6557C23.5863 40.8006 23.4391 40.9028 23.2704 40.94C23.2201 40.9507 22.1887 41.1915 21.7215 42.2589C21.6711 42.375 21.5877 42.4737 21.4816 42.5427C21.3755 42.6117 21.2515 42.648 21.1249 42.647ZM21.8257 46.1114C21.664 46.1114 21.4987 46.0467 21.3765 45.9353C20.5212 45.1303 19.4502 45.3208 19.4395 45.3243C19.0837 45.3962 18.7387 45.1662 18.6668 44.8104C18.5949 44.4547 18.8213 44.1061 19.1807 44.0378C19.2382 44.027 20.4421 43.7934 21.6316 44.4942C22.451 43.3873 23.6477 43.1322 23.7088 43.1178C23.8799 43.083 24.0578 43.1176 24.2034 43.214C24.349 43.3103 24.4503 43.4606 24.4851 43.6317C24.5199 43.8028 24.4853 43.9807 24.3889 44.1262C24.2925 44.2718 24.1423 44.3731 23.9712 44.4079C23.9101 44.4187 22.8895 44.6667 22.4259 45.7233C22.3396 45.9209 22.1635 46.0611 21.9551 46.1042C21.9156 46.1078 21.8724 46.1114 21.8257 46.1114ZM22.5337 49.5757C22.3648 49.5757 22.2066 49.5111 22.0809 49.3961C21.2255 48.5911 20.1582 48.7815 20.1438 48.7851C19.7916 48.8534 19.4466 48.627 19.3748 48.2712C19.3029 47.9154 19.5293 47.5704 19.8851 47.4986C19.9462 47.4878 21.1501 47.2542 22.336 47.955C23.159 46.8481 24.3557 46.5929 24.4168 46.5786C24.769 46.5103 25.1176 46.7367 25.1895 47.0925C25.2577 47.4482 25.0349 47.7897 24.6791 47.8687C24.6252 47.8795 23.5974 48.1203 23.1302 49.184C23.0476 49.3817 22.8679 49.5218 22.6595 49.565C22.6199 49.5757 22.5732 49.5757 22.5337 49.5757ZM4.28461 34.7443C4.1768 34.7443 4.07258 34.7228 3.97555 34.6653C3.92164 34.6365 2.8507 34.04 2.38711 32.7426C1.04305 33.0625 -0.0386717 32.4911 -0.0925779 32.4623C-0.244952 32.3793 -0.358154 32.2392 -0.407338 32.0727C-0.456522 31.9063 -0.437671 31.7272 -0.354922 31.5747C-0.182422 31.2548 0.209297 31.1362 0.529141 31.3087C0.568672 31.3303 1.52102 31.8083 2.5632 31.2907C2.75367 31.1937 2.97648 31.2009 3.16695 31.3015C3.35383 31.4058 3.47961 31.589 3.50477 31.8011C3.64133 32.9618 4.56492 33.4937 4.60086 33.5117C4.91352 33.6914 5.02852 34.0903 4.85602 34.4029C4.73383 34.6222 4.51102 34.7443 4.28461 34.7443ZM5.96649 31.6357C5.85867 31.6357 5.75445 31.607 5.65383 31.5567C5.59992 31.5279 4.52899 30.935 4.06898 29.6376C2.72852 29.9611 1.6432 29.3897 1.5893 29.3573C1.51354 29.3165 1.44661 29.2611 1.39236 29.1943C1.33812 29.1275 1.29763 29.0506 1.27325 28.9681C1.24886 28.8856 1.24105 28.7991 1.25026 28.7135C1.25948 28.628 1.28555 28.5451 1.32695 28.4697C1.49586 28.1498 1.89117 28.0312 2.21102 28.2037C2.25773 28.2253 3.20289 28.7033 4.24149 28.1857C4.43555 28.0887 4.65836 28.0959 4.84523 28.1965C5.0357 28.2972 5.16148 28.484 5.18664 28.6961C5.3232 29.8568 6.2432 30.3887 6.28273 30.4103C6.59539 30.59 6.71039 30.9889 6.53789 31.3015C6.4193 31.5136 6.19649 31.6357 5.96649 31.6357ZM7.65195 28.5272C7.54414 28.5272 7.43992 28.4984 7.3393 28.4481C7.28539 28.4193 6.21445 27.8264 5.75445 26.5254C4.41039 26.8453 3.32867 26.2739 3.27477 26.2487C3.19921 26.2077 3.13249 26.1522 3.0784 26.0854C3.02432 26.0185 2.98394 25.9417 2.95958 25.8593C2.93521 25.7768 2.92734 25.6904 2.93641 25.6049C2.94547 25.5194 2.9713 25.4366 3.01242 25.3611C3.18133 25.0412 3.57664 24.9262 3.89649 25.0951C3.93961 25.1167 4.88836 25.5947 5.92695 25.0772C6.12102 24.9837 6.34383 24.9873 6.5307 25.0879C6.72117 25.1886 6.84695 25.3754 6.87211 25.5839C7.00867 26.7447 7.92867 27.2765 7.9682 27.2981C8.27727 27.4742 8.39586 27.8731 8.22336 28.1857C8.10477 28.405 7.88195 28.5272 7.65195 28.5272ZM9.33742 25.4186C9.22961 25.4186 9.12539 25.3898 9.02477 25.3395C8.97086 25.3107 7.89992 24.7178 7.43992 23.4168C6.09586 23.7403 5.01414 23.1689 4.96024 23.1401C4.64039 22.964 4.52539 22.5651 4.69789 22.2489C4.8668 21.9326 5.26211 21.814 5.58195 21.9829C5.62508 22.0081 6.57383 22.4825 7.61242 21.9686C7.80649 21.8715 8.0293 21.8787 8.21617 21.9793C8.40664 22.0764 8.53242 22.2668 8.55758 22.4753C8.69414 23.6361 9.61414 24.1679 9.65367 24.1895C9.96274 24.3656 10.0813 24.7609 9.90883 25.0772C9.79024 25.2964 9.56383 25.4186 9.33742 25.4186ZM10.2646 21.1312C10.243 21.1312 10.2179 21.1312 10.1963 21.1276C10.1352 21.124 8.91695 20.9839 7.99695 19.9597C6.8793 20.7682 5.65742 20.6532 5.60352 20.6497C5.24414 20.6101 4.9818 20.2903 5.02133 19.9273C5.06086 19.5679 5.3843 19.3128 5.74008 19.3415C5.79758 19.3487 6.84336 19.4206 7.61242 18.5473C7.75258 18.3856 7.96102 18.3029 8.17305 18.3245C8.38148 18.3461 8.57195 18.4683 8.67258 18.6551C9.24758 19.6758 10.297 19.8123 10.3437 19.8195C10.6995 19.8626 10.9582 20.1897 10.9223 20.5454C10.8755 20.8832 10.5952 21.1312 10.2646 21.1312ZM10.6312 17.6129C10.6096 17.6129 10.5845 17.6093 10.5629 17.6093C10.5018 17.6022 9.28352 17.462 8.36352 16.4378C7.24227 17.25 6.02398 17.1314 5.97008 17.1278C5.6107 17.0883 5.34836 16.7648 5.3843 16.4054C5.42383 16.0497 5.74008 15.7945 6.10305 15.8197C6.15695 15.8268 7.20633 15.9023 7.97539 15.0254C8.11195 14.8673 8.32039 14.7811 8.53602 14.8062C8.74445 14.8314 8.93492 14.95 9.03555 15.1368C9.60695 16.1575 10.6599 16.2976 10.7066 16.3012C10.8787 16.3229 11.0355 16.4109 11.1436 16.5465C11.2517 16.6821 11.3025 16.8546 11.2852 17.0272C11.2421 17.365 10.9618 17.6129 10.6312 17.6129ZM11.0013 14.0983C10.9798 14.0983 10.9546 14.0983 10.933 14.0947C10.872 14.0875 9.65367 13.9473 8.73008 12.9231C7.61602 13.7353 6.39774 13.6203 6.33664 13.6131C5.97727 13.5736 5.71492 13.2537 5.75086 12.8908C5.79039 12.535 6.10664 12.2762 6.46602 12.305C6.51992 12.3122 7.57289 12.3876 8.34195 11.5143C8.48211 11.3526 8.69055 11.27 8.90258 11.2951C9.11102 11.3167 9.30149 11.4425 9.40211 11.6258C9.97352 12.6464 11.0265 12.7865 11.0732 12.7901C11.2453 12.8118 11.4021 12.8998 11.5102 13.0354C11.6183 13.171 11.6691 13.3435 11.6518 13.5161C11.6123 13.8503 11.3284 14.0983 11.0013 14.0983ZM11.5691 11.4137C11.4793 11.4137 11.3859 11.3922 11.2996 11.3526C11.2421 11.3311 10.1388 10.8064 9.58899 9.53778C8.27727 9.95107 7.15602 9.45153 7.09852 9.42278C6.76789 9.27184 6.62414 8.88372 6.77508 8.55309C6.92602 8.22606 7.31055 8.08231 7.64117 8.22966C7.69149 8.24763 8.6618 8.65731 9.66805 8.07872C9.75829 8.02392 9.86081 7.99258 9.96627 7.98756C10.0717 7.98254 10.1768 8.00399 10.2718 8.04997C10.4659 8.13622 10.606 8.31591 10.642 8.52434C10.8576 9.67435 11.8099 10.1451 11.8495 10.1631C12.1765 10.3176 12.3166 10.7058 12.1657 11.0328C12.0507 11.2736 11.8171 11.4137 11.5691 11.4137ZM13.0462 8.20091C12.9563 8.20091 12.8629 8.18294 12.773 8.13981C12.7191 8.11825 11.6123 7.59356 11.066 6.32856C9.74711 6.73825 8.62945 6.23872 8.57555 6.21716C8.49718 6.18132 8.42665 6.13038 8.36798 6.06727C8.30931 6.00416 8.26365 5.9301 8.23361 5.84934C8.20358 5.76857 8.18975 5.68268 8.19292 5.59656C8.1961 5.51045 8.21621 5.42581 8.25211 5.34747C8.39945 5.02044 8.78758 4.87669 9.1182 5.02403C9.17211 5.0456 10.1388 5.45528 11.1451 4.8731C11.3284 4.76528 11.5548 4.7545 11.7488 4.84435C11.9429 4.9306 12.0795 5.11028 12.119 5.31872C12.331 6.46872 13.2834 6.9395 13.3265 6.95747C13.6499 7.112 13.7901 7.50013 13.6391 7.82716C13.5277 8.06075 13.2905 8.20091 13.0462 8.20091ZM14.5232 4.9845C14.4334 4.9845 14.3363 4.96653 14.2501 4.927C14.1962 4.90184 13.0893 4.37716 12.543 3.11216C11.2277 3.52184 10.1065 3.02231 10.049 2.99716C9.89183 2.92353 9.76988 2.79113 9.70939 2.62847C9.64889 2.46581 9.6547 2.28589 9.72555 2.12747C9.87649 1.79685 10.2646 1.6531 10.5916 1.80044C10.6491 1.82559 11.6159 2.23169 12.6221 1.6495C12.8054 1.54169 13.0318 1.53091 13.2223 1.62075C13.4199 1.7106 13.5565 1.88669 13.5924 2.09872C13.808 3.24513 14.7604 3.71591 14.8035 3.73388C15.127 3.88841 15.2671 4.28013 15.1126 4.60356C15.0048 4.84435 14.7676 4.9845 14.5232 4.9845ZM15.3857 2.94325C15.1737 2.94325 14.9616 2.83544 14.8359 2.64497C14.7999 2.59466 14.1459 1.56325 14.3579 0.197626C13.0246 -0.158155 12.3454 -1.17878 12.313 -1.22909C12.1154 -1.53097 12.2016 -1.93706 12.5071 -2.13472C12.5786 -2.18179 12.6586 -2.21431 12.7427 -2.23039C12.8267 -2.24648 12.9131 -2.24583 12.9969 -2.22847C13.0807 -2.21111 13.1602 -2.17738 13.231 -2.12923C13.3017 -2.08107 13.3623 -2.01943 13.4091 -1.94784C13.4415 -1.89753 14.0452 -1.03862 15.2024 -0.995499C15.418 -0.988311 15.6121 -0.873312 15.7307 -0.697217C15.8457 -0.521124 15.8673 -0.294717 15.7918 -0.0970612C15.3605 0.991845 15.9284 1.91903 15.9355 1.92622C16.1332 2.23169 16.047 2.63778 15.7415 2.83544C15.6337 2.90731 15.5079 2.94325 15.3857 2.94325ZM18.3505 1.01341C18.1349 1.01341 17.9265 0.905595 17.8007 0.715126C17.7648 0.664814 17.1107 -0.370187 17.3227 -1.73222C15.9895 -2.088 15.3102 -3.10503 15.2779 -3.15894C15.0802 -3.46441 15.1665 -3.8705 15.4684 -4.06816C15.7702 -4.26581 16.1799 -4.18316 16.374 -3.87769C16.4063 -3.83097 17.0101 -2.97206 18.1673 -2.92534C18.3793 -2.91816 18.577 -2.80675 18.692 -2.63066C18.8105 -2.45456 18.8321 -2.22816 18.753 -2.0305C18.3218 -0.937999 18.8932 -0.0108113 18.8968 -3.00407e-05C19.0945 0.301845 19.0118 0.711532 18.7063 0.905595C18.5985 0.977469 18.4727 1.01341 18.3505 1.01341ZM20.9596 -0.808624C20.7116 -0.808624 20.4745 -0.952374 20.363 -1.19675C20.3415 -1.25065 19.8491 -2.37191 20.266 -3.68722C19.0046 -4.24425 18.4907 -5.35472 18.4655 -5.40862C18.3182 -5.73925 18.4655 -6.13097 18.7962 -6.27831C19.1268 -6.42565 19.5113 -6.27831 19.6623 -5.95128C19.6838 -5.90097 20.1474 -4.95222 21.2866 -4.733C21.4987 -4.69347 21.6748 -4.55691 21.761 -4.35925C21.8473 -4.16159 21.8365 -3.93878 21.7287 -3.75909C21.1357 -2.74925 21.5454 -1.77175 21.5598 -1.72862C21.7035 -1.398 21.5526 -1.00987 21.222 -0.866124C21.1393 -0.830186 21.0495 -0.808624 20.9596 -0.808624ZM23.9999 -1.71784C23.7124 -1.71784 23.4501 -1.90831 23.371 -2.19941C23.3566 -2.25691 23.0404 -3.43925 23.6585 -4.67191C22.4977 -5.4194 22.1599 -6.59456 22.1455 -6.65206C22.0485 -7.00066 22.257 -7.36362 22.6055 -7.46066C22.9505 -7.55769 23.3135 -7.34925 23.4105 -7.00425C23.4249 -6.95753 23.7376 -5.94409 24.8301 -5.55237C24.929 -5.51612 25.0179 -5.45671 25.0892 -5.37912C25.1605 -5.30152 25.2122 -5.20799 25.24 -5.10633C25.2678 -5.00467 25.2709 -4.89784 25.2489 -4.79476C25.227 -4.69167 25.1807 -4.59533 25.114 -4.51378C24.3701 -3.61175 24.6324 -2.55159 24.636 -2.5444C24.7295 -2.19581 24.5246 -1.83284 24.176 -1.73581C24.1185 -1.72503 24.061 -1.71784 23.9999 -1.71784Z" fill="#ED6C30"/>
</g>
</g>
<mask id="path-5-outside-1_620_204" maskUnits="userSpaceOnUse" x="15" y="10" width="22" height="26" fill="black">
<rect fill="white" x="15" y="10" width="22" height="26"/>
<path d="M16.0859 35V11H25.5547C27.3672 11 28.9141 11.3242 30.1953 11.9727C31.4844 12.6133 32.4648 13.5234 33.1367 14.7031C33.8164 15.875 34.1563 17.2539 34.1563 18.8398C34.1563 20.4336 33.8125 21.8047 33.125 22.9531C32.4375 24.0937 31.4414 24.9687 30.1367 25.5781C28.8398 26.1875 27.2695 26.4922 25.4258 26.4922H19.0859V22.4141H24.6055C25.5742 22.4141 26.3789 22.2812 27.0195 22.0156C27.6602 21.75 28.1367 21.3516 28.4492 20.8203C28.7695 20.2891 28.9297 19.6289 28.9297 18.8398C28.9297 18.043 28.7695 17.3711 28.4492 16.8242C28.1367 16.2773 27.6563 15.8633 27.0078 15.582C26.3672 15.293 25.5586 15.1484 24.582 15.1484H21.1602V35H16.0859ZM29.0469 24.0781L35.0117 35H29.4102L23.5742 24.0781H29.0469Z"/>
</mask>
<path d="M16.0859 35V11H25.5547C27.3672 11 28.9141 11.3242 30.1953 11.9727C31.4844 12.6133 32.4648 13.5234 33.1367 14.7031C33.8164 15.875 34.1563 17.2539 34.1563 18.8398C34.1563 20.4336 33.8125 21.8047 33.125 22.9531C32.4375 24.0937 31.4414 24.9687 30.1367 25.5781C28.8398 26.1875 27.2695 26.4922 25.4258 26.4922H19.0859V22.4141H24.6055C25.5742 22.4141 26.3789 22.2812 27.0195 22.0156C27.6602 21.75 28.1367 21.3516 28.4492 20.8203C28.7695 20.2891 28.9297 19.6289 28.9297 18.8398C28.9297 18.043 28.7695 17.3711 28.4492 16.8242C28.1367 16.2773 27.6563 15.8633 27.0078 15.582C26.3672 15.293 25.5586 15.1484 24.582 15.1484H21.1602V35H16.0859ZM29.0469 24.0781L35.0117 35H29.4102L23.5742 24.0781H29.0469Z" fill="#3F6E16"/>
<path d="M16.0859 35H15.0859V36H16.0859V35ZM16.0859 11V10H15.0859V11H16.0859ZM30.1953 11.9727L29.7437 12.8649L29.7503 12.8682L30.1953 11.9727ZM33.1367 14.7031L32.2677 15.198L32.2717 15.2048L33.1367 14.7031ZM33.125 22.9531L33.9815 23.4693L33.983 23.4668L33.125 22.9531ZM30.1367 25.5781L29.7135 24.6721L29.7114 24.6731L30.1367 25.5781ZM19.0859 26.4922H18.0859V27.4922H19.0859V26.4922ZM19.0859 22.4141V21.4141H18.0859V22.4141H19.0859ZM27.0195 22.0156L27.4025 22.9394L27.4025 22.9394L27.0195 22.0156ZM28.4492 20.8203L27.5928 20.3039L27.5873 20.3133L28.4492 20.8203ZM28.4492 16.8242L27.5809 17.3204L27.5863 17.3296L28.4492 16.8242ZM27.0078 15.582L26.5965 16.4935L26.6032 16.4965L26.6099 16.4995L27.0078 15.582ZM21.1602 15.1484V14.1484H20.1602V15.1484H21.1602ZM21.1602 35V36H22.1602V35H21.1602ZM29.0469 24.0781L29.9245 23.5988L29.6402 23.0781H29.0469V24.0781ZM35.0117 35V36H36.6973L35.8894 34.5207L35.0117 35ZM29.4102 35L28.5282 35.4713L28.8107 36H29.4102V35ZM23.5742 24.0781V23.0781H21.9061L22.6922 24.5494L23.5742 24.0781ZM17.0859 35V11H15.0859V35H17.0859ZM16.0859 12H25.5547V10H16.0859V12ZM25.5547 12C27.2504 12 28.6343 12.3034 29.7438 12.8649L30.6469 11.0804C29.1938 10.345 27.484 10 25.5547 10V12ZM29.7503 12.8682C30.8727 13.426 31.7003 14.2017 32.2678 15.198L34.0057 14.2082C33.2294 12.8452 32.0961 11.8006 30.6404 11.0771L29.7503 12.8682ZM32.2717 15.2048C32.8489 16.2 33.1563 17.3998 33.1563 18.8398H35.1563C35.1563 17.108 34.7839 15.55 34.0017 14.2014L32.2717 15.2048ZM33.1563 18.8398C33.1563 20.2874 32.8452 21.4736 32.267 22.4395L33.983 23.4668C34.7798 22.1358 35.1563 20.5798 35.1563 18.8398H33.1563ZM32.2685 22.4369C31.6919 23.3935 30.8536 24.1396 29.7135 24.6721L30.5599 26.4842C32.0292 25.7979 33.1831 24.794 33.9815 23.4693L32.2685 22.4369ZM29.7114 24.6731C28.5801 25.2047 27.1631 25.4922 25.4258 25.4922V27.4922C27.3759 27.4922 29.0996 27.1703 30.562 26.4832L29.7114 24.6731ZM25.4258 25.4922H19.0859V27.4922H25.4258V25.4922ZM20.0859 26.4922V22.4141H18.0859V26.4922H20.0859ZM19.0859 23.4141H24.6055V21.4141H19.0859V23.4141ZM24.6055 23.4141C25.6572 23.4141 26.6025 23.2711 27.4025 22.9394L26.6365 21.0919C26.1553 21.2914 25.4913 21.4141 24.6055 21.4141V23.4141ZM27.4025 22.9394C28.2175 22.6015 28.8749 22.069 29.3112 21.3273L27.5873 20.3133C27.3986 20.6341 27.1028 20.8985 26.6365 21.0919L27.4025 22.9394ZM29.3056 21.3367C29.7422 20.6125 29.9297 19.7621 29.9297 18.8398H27.9297C27.9297 19.4957 27.7968 19.9656 27.5928 20.304L29.3056 21.3367ZM29.9297 18.8398C29.9297 17.9105 29.7426 17.0537 29.3121 16.3188L27.5863 17.3296C27.7965 17.6884 27.9297 18.1755 27.9297 18.8398H29.9297ZM29.3175 16.3281C28.8848 15.571 28.2269 15.0208 27.4057 14.6646L26.6099 16.4995C27.0856 16.7058 27.3886 16.9837 27.581 17.3204L29.3175 16.3281ZM27.4191 14.6705C26.6092 14.3051 25.6487 14.1484 24.582 14.1484V16.1484C25.4685 16.1484 26.1252 16.2809 26.5965 16.4935L27.4191 14.6705ZM24.582 14.1484H21.1602V16.1484H24.582V14.1484ZM20.1602 15.1484V35H22.1602V15.1484H20.1602ZM21.1602 34H16.0859V36H21.1602V34ZM28.1692 24.5574L34.1341 35.4793L35.8894 34.5207L29.9245 23.5988L28.1692 24.5574ZM35.0117 34H29.4102V36H35.0117V34ZM30.2921 34.5287L24.4562 23.6068L22.6922 24.5494L28.5282 35.4713L30.2921 34.5287ZM23.5742 25.0781H29.0469V23.0781H23.5742V25.0781Z" fill="white" mask="url(#path-5-outside-1_620_204)"/>
</g>
<defs>
<clipPath id="clip0_620_204">
<rect width="46" height="46" fill="white" transform="translate(1)"/>
</clipPath>
</defs>
</svg>
