<svg width="46" height="46" viewBox="0 0 46 46" fill="none" xmlns="http://www.w3.org/2000/svg">
<g clipPath="url(#clip0_620_239)">
<path d="M22.9964 0.0143738C10.3213 0.0143738 0.0108032 10.3248 0.0108032 23C0.0108032 35.6787 10.3213 45.9892 22.9964 45.9892C35.6716 45.9892 45.9856 35.6787 45.9856 23C45.9892 10.3248 35.6716 0.0143738 22.9964 0.0143738Z" fill="#E0E0E0"/>
<mask id="mask0_620_239" style="mask-type:luminance" maskUnits="userSpaceOnUse" x="0" y="0" width="46" height="46">
<path d="M22.9964 0.0143738C10.3213 0.0143738 0.0108032 10.3248 0.0108032 23C0.0108032 35.6787 10.3213 45.9892 22.9964 45.9892C35.6716 45.9892 45.9856 35.6787 45.9856 23C45.9892 10.3248 35.6716 0.0143738 22.9964 0.0143738Z" fill="white"/>
</mask>
<g mask="url(#mask0_620_239)">
<mask id="mask1_620_239" style="mask-type:luminance" maskUnits="userSpaceOnUse" x="-2" y="-2" width="50" height="50">
<path d="M47.4447 23C47.4447 36.5017 36.4982 47.4447 22.9964 47.4447C9.49832 47.4447 -1.44824 36.4981 -1.44824 23C-1.44824 9.49827 9.49473 -1.4447 22.9964 -1.4447C36.5018 -1.4447 47.4447 9.49827 47.4447 23Z" fill="white"/>
</mask>
<g mask="url(#mask1_620_239)">
<path d="M42.5716 8.40575C42.4422 8.40575 42.3093 8.36622 42.2015 8.28716C41.2419 7.61872 40.2357 7.95294 40.189 7.96731C39.8511 8.08231 39.4738 7.90263 39.3552 7.56481C39.2366 7.22341 39.4127 6.84966 39.7505 6.73106C39.808 6.7095 40.9616 6.307 42.241 6.8281C42.895 5.60981 44.0415 5.18216 44.0954 5.16059C44.4368 5.03841 44.8141 5.2145 44.9327 5.55591C45.0549 5.89372 44.886 6.26747 44.5446 6.39325C44.505 6.41122 43.5132 6.79935 43.2041 7.92419C43.1466 8.12903 42.9957 8.29435 42.7944 8.36981C42.7225 8.39497 42.6507 8.40575 42.5716 8.40575ZM43.7755 11.73C43.6425 11.73 43.5132 11.6904 43.4018 11.6114C42.4458 10.9429 41.436 11.2772 41.3965 11.2915C41.0586 11.4065 40.6813 11.2304 40.5627 10.889C40.4441 10.5476 40.613 10.1775 40.9544 10.0553C41.0119 10.0373 42.1655 9.63122 43.4449 10.1523C44.099 8.93403 45.2418 8.50638 45.2993 8.48481C45.6407 8.36263 46.018 8.53872 46.1402 8.88013C46.2624 9.21794 46.0899 9.59169 45.7521 9.71747C45.6982 9.73903 44.7207 10.1272 44.4152 11.2484C44.3577 11.4533 44.2068 11.6186 44.0055 11.694C43.9265 11.7192 43.851 11.73 43.7755 11.73ZM43.8618 15.0722C43.7935 15.0722 43.7252 15.0614 43.6569 15.0434C43.4557 14.9751 43.2975 14.817 43.2365 14.6086C42.8915 13.4909 41.8636 13.1279 41.8529 13.1243C41.688 13.07 41.5515 12.9524 41.4733 12.7974C41.3951 12.6424 41.3817 12.4627 41.436 12.2978C41.5474 11.9528 41.9175 11.7659 42.2625 11.8773C42.32 11.8953 43.4772 12.287 44.1672 13.4837C45.4322 12.9267 46.5966 13.2897 46.6541 13.3112C46.9991 13.4226 47.1896 13.7928 47.0746 14.1378C46.9632 14.4828 46.5966 14.6733 46.2516 14.5583C46.2013 14.5439 45.1879 14.2456 44.2535 14.9464C44.1385 15.029 44.0019 15.0722 43.8618 15.0722ZM42.7657 18.4359C42.6258 18.4349 42.4898 18.3895 42.3774 18.3061C42.265 18.2228 42.182 18.1059 42.1404 17.9723C41.7954 16.8547 40.7963 16.4989 40.7532 16.4845C40.4154 16.3659 40.2285 15.9993 40.3435 15.6579C40.4585 15.3165 40.825 15.1297 41.1665 15.2411C41.224 15.259 42.3847 15.6508 43.0711 16.8475C44.3361 16.2904 45.5005 16.657 45.5616 16.675C45.903 16.7864 46.0935 17.1601 45.9785 17.5015C45.8671 17.8465 45.5005 18.037 45.1591 17.922C45.1052 17.9076 44.0918 17.6129 43.161 18.3101C43.046 18.3892 42.9058 18.4359 42.7657 18.4359ZM43.064 22.504C42.8375 22.504 42.6111 22.3854 42.4961 22.1734C42.4674 22.1267 41.9211 21.2247 40.764 21.1025C40.5519 21.0809 40.365 20.9587 40.2608 20.7718C40.1602 20.585 40.1494 20.3622 40.2429 20.1681C40.746 19.1079 40.2393 18.1448 40.2321 18.1376C40.0524 17.8214 40.1674 17.4189 40.4836 17.2464C40.8035 17.0667 41.2024 17.1817 41.3749 17.4979C41.4036 17.5518 41.993 18.6264 41.6947 19.9668C42.9993 20.4125 43.6102 21.4726 43.639 21.5265C43.815 21.8428 43.7036 22.2417 43.3874 22.4178C43.2832 22.4789 43.1682 22.504 43.064 22.504ZM39.9769 24.2326C39.7505 24.2326 39.5277 24.114 39.4091 23.902C39.3768 23.8553 38.8341 22.9532 37.6769 22.8311C37.5727 22.8188 37.4729 22.7821 37.3855 22.724C37.298 22.666 37.2255 22.5881 37.1738 22.4968C37.0696 22.3136 37.0624 22.0836 37.1558 21.8967C37.659 20.8365 37.1522 19.8734 37.1486 19.8662C36.969 19.5536 37.0804 19.1475 37.4002 18.975C37.7165 18.7953 38.1154 18.9103 38.2915 19.2229C38.3238 19.2768 38.9096 20.3478 38.6077 21.6954C39.9122 22.1411 40.5232 23.2012 40.5519 23.2551C40.728 23.5714 40.6166 23.9667 40.3004 24.1464C40.1997 24.2075 40.0883 24.2326 39.9769 24.2326ZM36.8971 25.9648C36.6707 25.9648 36.4443 25.8462 36.3221 25.6342C36.2969 25.5875 35.7543 24.6818 34.5971 24.5632C34.385 24.5417 34.1946 24.4159 34.0904 24.2326C33.9861 24.0457 33.979 23.8193 34.0724 23.6289C34.5755 22.5687 34.0652 21.6056 34.0616 21.5984C33.8819 21.2822 33.9969 20.8797 34.3132 20.7072C34.6294 20.5311 35.0319 20.6425 35.2044 20.9587C35.2332 21.0126 35.8225 22.0836 35.5207 23.4312C36.8288 23.8768 37.4361 24.937 37.4685 24.9873C37.6446 25.3036 37.5296 25.7025 37.2169 25.8822C37.1127 25.9397 37.0013 25.9648 36.8971 25.9648ZM33.9933 27.6108C33.7849 27.6108 33.58 27.5101 33.4507 27.3268C33.4255 27.2873 32.8038 26.4284 31.6358 26.4068C31.4238 26.4033 31.2261 26.299 31.104 26.1193C30.9854 25.9432 30.9602 25.7204 31.0321 25.5192C31.4454 24.4195 30.856 23.5067 30.8488 23.4995C30.644 23.1976 30.723 22.7879 31.0249 22.5903C31.3232 22.3854 31.7329 22.4645 31.9377 22.7628C31.9736 22.8131 32.6457 23.8301 32.4624 25.1993C33.8029 25.53 34.5 26.5326 34.536 26.5865C34.7408 26.8848 34.6654 27.2909 34.3671 27.4958C34.2449 27.5748 34.1155 27.6108 33.9933 27.6108ZM31.0644 29.5981C30.856 29.5981 30.6511 29.5011 30.5218 29.3142C30.493 29.2675 29.8713 28.4158 28.7105 28.3942C28.4949 28.3906 28.2972 28.2828 28.1786 28.1067C28.0565 27.9306 28.0313 27.7078 28.1068 27.5065C28.5165 26.4104 27.9271 25.494 27.9199 25.4832C27.8716 25.412 27.8379 25.332 27.8207 25.2477C27.8034 25.1634 27.8029 25.0766 27.8193 24.9921C27.8357 24.9076 27.8685 24.8272 27.916 24.7555C27.9635 24.6838 28.0246 24.6221 28.096 24.574C28.3943 24.3728 28.8075 24.4483 29.0052 24.7501C29.0411 24.7968 29.7204 25.8211 29.5335 27.1867C30.874 27.5173 31.5711 28.5236 31.6071 28.5703C31.8083 28.8722 31.7329 29.2818 31.431 29.4795C31.3248 29.5575 31.1962 29.5991 31.0644 29.5981ZM28.1391 31.5854C27.9307 31.5854 27.7258 31.4884 27.6 31.3015C27.5677 31.2548 26.946 30.4067 25.7852 30.3851C25.5732 30.3815 25.3755 30.2737 25.2533 30.1012C25.1311 29.9215 25.106 29.6987 25.1815 29.5011C25.5947 28.405 25.0018 27.4886 24.9982 27.4778C24.7933 27.1759 24.8724 26.7734 25.1743 26.5686C25.318 26.4717 25.4941 26.4355 25.6643 26.4678C25.8346 26.5001 25.9852 26.5983 26.0835 26.7411C26.1194 26.7914 26.795 27.812 26.6082 29.1776C27.9486 29.5083 28.6458 30.5145 28.6818 30.5648C28.8866 30.8631 28.8075 31.2692 28.5057 31.474C28.3943 31.5459 28.2685 31.5854 28.1391 31.5854ZM23.5247 32.9295C23.4313 32.9295 23.3307 32.9079 23.2408 32.8684C23.0504 32.775 22.9138 32.5953 22.8815 32.3868C22.6838 31.2332 21.7386 30.7517 21.6955 30.7301C21.3721 30.5684 21.2355 30.1767 21.3972 29.8568C21.5554 29.5298 21.9435 29.3968 22.2669 29.5478C22.3244 29.5729 23.4205 30.112 23.9488 31.3878C25.2785 30.9961 26.3854 31.5136 26.4393 31.5387C26.7663 31.6933 26.9065 32.085 26.7483 32.412C26.5938 32.7354 26.2057 32.8756 25.8786 32.7247C25.8319 32.7031 24.8688 32.2754 23.8482 32.8468C23.744 32.9007 23.6361 32.9295 23.5247 32.9295ZM22.001 36.1208C21.904 36.1208 21.8069 36.1028 21.7207 36.0597C21.5266 35.9662 21.39 35.7901 21.3577 35.5817C21.16 34.4281 20.2149 33.9429 20.1718 33.9214C20.0165 33.844 19.8983 33.7083 19.8431 33.5439C19.7878 33.3795 19.8001 33.1999 19.8771 33.0445C20.0316 32.7211 20.4197 32.5845 20.7468 32.7426C20.8007 32.7678 21.9004 33.3068 22.4286 34.5826C23.7475 34.1909 24.8616 34.7084 24.9155 34.7336C25.2461 34.8881 25.3827 35.2798 25.2282 35.6068C25.0736 35.9339 24.6819 36.074 24.3585 35.9195C24.3082 35.9015 23.345 35.4703 22.328 36.0417C22.2268 36.0935 22.1147 36.1206 22.001 36.1208ZM20.4772 39.312C20.3802 39.312 20.2832 39.2904 20.1933 39.2473C20.0029 39.1575 19.8663 38.9778 19.8268 38.7658C19.6327 37.6158 18.684 37.1306 18.648 37.1126C18.5708 37.0747 18.5018 37.022 18.445 36.9573C18.3881 36.8927 18.3446 36.8175 18.3169 36.7361C18.2892 36.6546 18.2779 36.5685 18.2835 36.4826C18.2891 36.3968 18.3116 36.3129 18.3497 36.2358C18.5079 35.9159 18.896 35.7757 19.2194 35.9339C19.2733 35.9626 20.373 36.4981 20.9013 37.7739C22.2274 37.3857 23.3379 37.8997 23.3918 37.9284C23.5486 38.0028 23.6694 38.1363 23.7277 38.2998C23.786 38.4632 23.777 38.6431 23.7026 38.7999C23.6283 38.9567 23.4947 39.0775 23.3313 39.1358C23.1678 39.1941 22.9879 39.1851 22.8311 39.1108C22.7844 39.0892 21.8177 38.6651 20.8007 39.2329C20.701 39.2856 20.5899 39.3127 20.4772 39.312ZM20.125 42.647C19.9597 42.647 19.798 42.5823 19.6722 42.4673C18.8169 41.6623 17.7496 41.8528 17.7352 41.8564C17.3794 41.9282 17.0344 41.6982 16.9625 41.3461C16.8907 40.9903 17.1207 40.6453 17.4765 40.5734C17.5375 40.5626 18.7379 40.329 19.9274 41.0298C20.7468 39.9229 21.9471 39.6642 22.0046 39.6534C22.1742 39.6207 22.3498 39.6561 22.4935 39.7519C22.6372 39.8477 22.7374 39.9963 22.7724 40.1655C22.8073 40.3346 22.7743 40.5107 22.6804 40.6557C22.5864 40.8006 22.4392 40.9028 22.2705 40.94C22.2202 40.9507 21.1888 41.1915 20.7216 42.2589C20.6712 42.375 20.5878 42.4737 20.4817 42.5427C20.3757 42.6117 20.2516 42.648 20.125 42.647ZM20.8258 46.1114C20.6641 46.1114 20.4988 46.0467 20.3766 45.9353C19.5213 45.1303 18.4504 45.3208 18.4396 45.3243C18.0838 45.3962 17.7388 45.1662 17.6669 44.8104C17.595 44.4547 17.8215 44.1061 18.1808 44.0378C18.2383 44.027 19.4422 43.7934 20.6318 44.4942C21.4511 43.3873 22.6479 43.1322 22.709 43.1178C22.88 43.083 23.0579 43.1176 23.2035 43.214C23.3491 43.3103 23.4504 43.4606 23.4852 43.6317C23.52 43.8028 23.4854 43.9807 23.389 44.1262C23.2926 44.2718 23.1424 44.3731 22.9713 44.4079C22.9102 44.4187 21.8896 44.6667 21.426 45.7233C21.3397 45.9209 21.1636 46.0611 20.9552 46.1042C20.9157 46.1078 20.8725 46.1114 20.8258 46.1114ZM21.5338 49.5757C21.3649 49.5757 21.2068 49.5111 21.081 49.3961C20.2257 48.5911 19.1583 48.7815 19.144 48.7851C18.7918 48.8534 18.4468 48.627 18.3749 48.2712C18.303 47.9154 18.5294 47.5704 18.8852 47.4986C18.9463 47.4878 20.1502 47.2542 21.3361 47.955C22.1591 46.8481 23.3558 46.5929 23.4169 46.5786C23.7691 46.5103 24.1177 46.7367 24.1896 47.0925C24.2579 47.4482 24.035 47.7897 23.6793 47.8687C23.6254 47.8795 22.5975 48.1203 22.1304 49.184C22.0477 49.3817 21.868 49.5218 21.6596 49.565C21.62 49.5757 21.5733 49.5757 21.5338 49.5757ZM3.28473 34.7443C3.17692 34.7443 3.0727 34.7228 2.97567 34.6653C2.92176 34.6365 1.85083 34.04 1.38723 32.7426C0.0431691 33.0625 -1.03855 32.4911 -1.09246 32.4623C-1.24483 32.3793 -1.35803 32.2392 -1.40722 32.0727C-1.4564 31.9063 -1.43755 31.7272 -1.3548 31.5747C-1.1823 31.2548 -0.790581 31.1362 -0.470737 31.3087C-0.431206 31.3303 0.521138 31.8083 1.56333 31.2907C1.75379 31.1937 1.97661 31.2009 2.16708 31.3015C2.35395 31.4058 2.47973 31.589 2.50489 31.8011C2.64145 32.9618 3.56504 33.4937 3.60098 33.5117C3.91364 33.6914 4.02864 34.0903 3.85614 34.4029C3.73395 34.6222 3.51114 34.7443 3.28473 34.7443ZM4.96661 31.6357C4.85879 31.6357 4.75458 31.607 4.65395 31.5567C4.60004 31.5279 3.52911 30.935 3.06911 29.6376C1.72864 29.9611 0.643326 29.3897 0.589419 29.3573C0.51366 29.3165 0.446729 29.2611 0.392484 29.1943C0.33824 29.1275 0.297756 29.0506 0.273368 28.9681C0.248979 28.8856 0.241169 28.7991 0.250387 28.7135C0.259605 28.628 0.285669 28.5451 0.327075 28.4697C0.495982 28.1498 0.891294 28.0312 1.21114 28.2037C1.25786 28.2253 2.20301 28.7033 3.24161 28.1857C3.43567 28.0887 3.65848 28.0959 3.84536 28.1965C4.03583 28.2972 4.16161 28.484 4.18676 28.6961C4.32333 29.8568 5.24333 30.3887 5.28286 30.4103C5.59551 30.59 5.71051 30.9889 5.53801 31.3015C5.41942 31.5136 5.19661 31.6357 4.96661 31.6357ZM6.65208 28.5272C6.54426 28.5272 6.44004 28.4984 6.33942 28.4481C6.28551 28.4193 5.21458 27.8264 4.75458 26.5254C3.41051 26.8453 2.32879 26.2739 2.27489 26.2487C2.19934 26.2077 2.13261 26.1522 2.07853 26.0854C2.02444 26.0185 1.98407 25.9417 1.9597 25.8593C1.93533 25.7768 1.92746 25.6904 1.93653 25.6049C1.9456 25.5194 1.97143 25.4366 2.01254 25.3611C2.18145 25.0412 2.57676 24.9262 2.89661 25.0951C2.93973 25.1167 3.88848 25.5947 4.92708 25.0772C5.12114 24.9837 5.34395 24.9873 5.53083 25.0879C5.72129 25.1886 5.84708 25.3754 5.87223 25.5839C6.00879 26.7447 6.92879 27.2765 6.96833 27.2981C7.27739 27.4742 7.39598 27.8731 7.22348 28.1857C7.10489 28.405 6.88208 28.5272 6.65208 28.5272ZM8.33755 25.4186C8.22973 25.4186 8.12551 25.3898 8.02489 25.3395C7.97098 25.3107 6.90004 24.7178 6.44004 23.4168C5.09598 23.7403 4.01426 23.1689 3.96036 23.1401C3.64051 22.964 3.52551 22.5651 3.69801 22.2489C3.86692 21.9326 4.26223 21.814 4.58208 21.9829C4.6252 22.0081 5.57395 22.4825 6.61255 21.9686C6.80661 21.8715 7.02942 21.8787 7.2163 21.9793C7.40676 22.0764 7.53255 22.2668 7.5577 22.4753C7.69426 23.6361 8.61426 24.1679 8.6538 24.1895C8.96286 24.3656 9.08145 24.7609 8.90895 25.0772C8.79036 25.2964 8.56395 25.4186 8.33755 25.4186ZM9.26473 21.1312C9.24317 21.1312 9.21801 21.1312 9.19645 21.1276C9.13536 21.124 7.91708 20.9839 6.99708 19.9597C5.87942 20.7682 4.65754 20.6532 4.60364 20.6497C4.24426 20.6101 3.98192 20.2903 4.02145 19.9273C4.06098 19.5679 4.38442 19.3128 4.7402 19.3415C4.7977 19.3487 5.84348 19.4206 6.61255 18.5473C6.7527 18.3856 6.96114 18.3029 7.17317 18.3245C7.38161 18.3461 7.57208 18.4683 7.6727 18.6551C8.2477 19.6758 9.29708 19.8123 9.34379 19.8195C9.69958 19.8626 9.95833 20.1897 9.92239 20.5454C9.87567 20.8832 9.59536 21.1312 9.26473 21.1312ZM9.6313 17.6129C9.60973 17.6129 9.58458 17.6093 9.56301 17.6093C9.50192 17.6022 8.28364 17.462 7.36364 16.4378C6.24239 17.25 5.02411 17.1314 4.9702 17.1278C4.61083 17.0883 4.34848 16.7648 4.38442 16.4054C4.42395 16.0497 4.7402 15.7945 5.10317 15.8197C5.15708 15.8268 6.20645 15.9023 6.97551 15.0254C7.11208 14.8673 7.32051 14.7811 7.53614 14.8062C7.74458 14.8314 7.93505 14.95 8.03567 15.1368C8.60708 16.1575 9.66005 16.2976 9.70676 16.3012C9.87884 16.3229 10.0356 16.4109 10.1437 16.5465C10.2518 16.6821 10.3026 16.8546 10.2854 17.0272C10.2422 17.365 9.96192 17.6129 9.6313 17.6129ZM10.0015 14.0983C9.97989 14.0983 9.95473 14.0983 9.93317 14.0947C9.87208 14.0875 8.6538 13.9473 7.7302 12.9231C6.61614 13.7353 5.39786 13.6203 5.33676 13.6131C4.97739 13.5736 4.71504 13.2537 4.75098 12.8908C4.79051 12.535 5.10676 12.2762 5.46614 12.305C5.52004 12.3122 6.57301 12.3876 7.34208 11.5143C7.48223 11.3526 7.69067 11.27 7.9027 11.2951C8.11114 11.3167 8.30161 11.4425 8.40223 11.6258C8.97364 12.6464 10.0266 12.7865 10.0733 12.7901C10.2454 12.8118 10.4022 12.8998 10.5103 13.0354C10.6184 13.171 10.6692 13.3435 10.6519 13.5161C10.6124 13.8503 10.3285 14.0983 10.0015 14.0983ZM10.5693 11.4137C10.4794 11.4137 10.386 11.3922 10.2997 11.3526C10.2422 11.3311 9.13895 10.8064 8.58911 9.53778C7.27739 9.95107 6.15614 9.45153 6.09864 9.42278C5.76801 9.27184 5.62426 8.88372 5.7752 8.55309C5.92614 8.22606 6.31067 8.08231 6.64129 8.22966C6.69161 8.24763 7.66192 8.65731 8.66817 8.07872C8.75841 8.02392 8.86093 7.99258 8.96639 7.98756C9.07185 7.98254 9.17688 8.00399 9.27192 8.04997C9.46598 8.13622 9.60614 8.31591 9.64208 8.52434C9.8577 9.67435 10.81 10.1451 10.8496 10.1631C11.1766 10.3176 11.3168 10.7058 11.1658 11.0328C11.0508 11.2736 10.8172 11.4137 10.5693 11.4137ZM12.0463 8.20091C11.9565 8.20091 11.863 8.18294 11.7732 8.13981C11.7193 8.11825 10.6124 7.59356 10.0661 6.32856C8.74723 6.73825 7.62958 6.23872 7.57567 6.21716C7.49731 6.18132 7.42677 6.13038 7.3681 6.06727C7.30943 6.00416 7.26377 5.9301 7.23373 5.84934C7.2037 5.76857 7.18987 5.68268 7.19304 5.59656C7.19622 5.51045 7.21633 5.42581 7.25223 5.34747C7.39958 5.02044 7.7877 4.87669 8.11833 5.02403C8.17223 5.0456 9.13895 5.45528 10.1452 4.8731C10.3285 4.76528 10.5549 4.7545 10.749 4.84435C10.943 4.9306 11.0796 5.11028 11.1191 5.31872C11.3311 6.46872 12.2835 6.9395 12.3266 6.95747C12.65 7.112 12.7902 7.50013 12.6393 7.82716C12.5279 8.06075 12.2907 8.20091 12.0463 8.20091ZM13.5233 4.9845C13.4335 4.9845 13.3365 4.96653 13.2502 4.927C13.1963 4.90184 12.0894 4.37716 11.5432 3.11216C10.2279 3.52184 9.10661 3.02231 9.04911 2.99716C8.89196 2.92353 8.77 2.79113 8.70951 2.62847C8.64902 2.46581 8.65482 2.28589 8.72567 2.12747C8.87661 1.79685 9.26473 1.6531 9.59176 1.80044C9.64926 1.82559 10.616 2.23169 11.6222 1.6495C11.8055 1.54169 12.0319 1.53091 12.2224 1.62075C12.42 1.7106 12.5566 1.88669 12.5925 2.09872C12.8082 3.24513 13.7605 3.71591 13.8036 3.73388C14.1271 3.88841 14.2672 4.28013 14.1127 4.60356C14.0049 4.84435 13.7677 4.9845 13.5233 4.9845ZM14.3858 2.94325C14.1738 2.94325 13.9618 2.83544 13.836 2.64497C13.8 2.59466 13.146 1.56325 13.358 0.197626C12.0247 -0.158155 11.3455 -1.17878 11.3132 -1.22909C11.1155 -1.53097 11.2018 -1.93706 11.5072 -2.13472C11.5787 -2.18179 11.6587 -2.21431 11.7428 -2.23039C11.8268 -2.24648 11.9132 -2.24583 11.997 -2.22847C12.0808 -2.21111 12.1604 -2.17738 12.2311 -2.12923C12.3018 -2.08107 12.3624 -2.01943 12.4093 -1.94784C12.4416 -1.89753 13.0454 -1.03862 14.2025 -0.995499C14.4182 -0.988311 14.6122 -0.873312 14.7308 -0.697217C14.8458 -0.521124 14.8674 -0.294717 14.7919 -0.0970612C14.3607 0.991845 14.9285 1.91903 14.9357 1.92622C15.1333 2.23169 15.0471 2.63778 14.7416 2.83544C14.6338 2.90731 14.508 2.94325 14.3858 2.94325ZM17.3507 1.01341C17.135 1.01341 16.9266 0.905595 16.8008 0.715126C16.7649 0.664814 16.1108 -0.370187 16.3229 -1.73222C14.9896 -2.088 14.3104 -3.10503 14.278 -3.15894C14.0804 -3.46441 14.1666 -3.8705 14.4685 -4.06816C14.7704 -4.26581 15.18 -4.18316 15.3741 -3.87769C15.4065 -3.83097 16.0102 -2.97206 17.1674 -2.92534C17.3794 -2.91816 17.5771 -2.80675 17.6921 -2.63066C17.8107 -2.45456 17.8322 -2.22816 17.7532 -2.0305C17.3219 -0.937999 17.8933 -0.0108113 17.8969 -3.00407e-05C18.0946 0.301845 18.0119 0.711532 17.7065 0.905595C17.5986 0.977469 17.4729 1.01341 17.3507 1.01341ZM19.9597 -0.808624C19.7118 -0.808624 19.4746 -0.952374 19.3632 -1.19675C19.3416 -1.25065 18.8493 -2.37191 19.2661 -3.68722C18.0047 -4.24425 17.4908 -5.35472 17.4657 -5.40862C17.3183 -5.73925 17.4657 -6.13097 17.7963 -6.27831C18.1269 -6.42565 18.5115 -6.27831 18.6624 -5.95128C18.684 -5.90097 19.1475 -4.95222 20.2868 -4.733C20.4988 -4.69347 20.6749 -4.55691 20.7611 -4.35925C20.8474 -4.16159 20.8366 -3.93878 20.7288 -3.75909C20.1358 -2.74925 20.5455 -1.77175 20.5599 -1.72862C20.7036 -1.398 20.5527 -1.00987 20.2221 -0.866124C20.1394 -0.830186 20.0496 -0.808624 19.9597 -0.808624ZM23 -1.71784C22.7125 -1.71784 22.4502 -1.90831 22.3711 -2.19941C22.3568 -2.25691 22.0405 -3.43925 22.6586 -4.67191C21.4979 -5.4194 21.16 -6.59456 21.1457 -6.65206C21.0486 -7.00066 21.2571 -7.36362 21.6057 -7.46066C21.9507 -7.55769 22.3136 -7.34925 22.4107 -7.00425C22.425 -6.95753 22.7377 -5.94409 23.8302 -5.55237C23.9292 -5.51612 24.018 -5.45671 24.0893 -5.37912C24.1606 -5.30152 24.2123 -5.20799 24.2401 -5.10633C24.2679 -5.00467 24.271 -4.89784 24.2491 -4.79476C24.2271 -4.69167 24.1809 -4.59533 24.1141 -4.51378C23.3702 -3.61175 23.6325 -2.55159 23.6361 -2.5444C23.7296 -2.19581 23.5247 -1.83284 23.1761 -1.73581C23.1186 -1.72503 23.0611 -1.71784 23 -1.71784Z" fill="#ED6C30"/>
</g>
</g>
<mask id="path-5-outside-1_620_239" maskUnits="userSpaceOnUse" x="16" y="9" width="18" height="26" fill="black">
<rect fill="white" x="16" y="9" width="18" height="26"/>
<path d="M17.0859 34V10H22.1602V29.8164H32.4492V34H17.0859Z"/>
</mask>
<path d="M17.0859 34V10H22.1602V29.8164H32.4492V34H17.0859Z" fill="#3431A6"/>
<path d="M17.0859 34H16.0859V35H17.0859V34ZM17.0859 10V9H16.0859V10H17.0859ZM22.1602 10H23.1602V9H22.1602V10ZM22.1602 29.8164H21.1602V30.8164H22.1602V29.8164ZM32.4492 29.8164H33.4492V28.8164H32.4492V29.8164ZM32.4492 34V35H33.4492V34H32.4492ZM18.0859 34V10H16.0859V34H18.0859ZM17.0859 11H22.1602V9H17.0859V11ZM21.1602 10V29.8164H23.1602V10H21.1602ZM22.1602 30.8164H32.4492V28.8164H22.1602V30.8164ZM31.4492 29.8164V34H33.4492V29.8164H31.4492ZM32.4492 33H17.0859V35H32.4492V33Z" fill="white" mask="url(#path-5-outside-1_620_239)"/>
</g>
<defs>
<clipPath id="clip0_620_239">
<rect width="46" height="46" fill="white"/>
</clipPath>
</defs>
</svg>
